<?xml version="1.0" encoding="UTF-8"?>
<svg version="1.1" xmlns="http://www.w3.org/2000/svg" width="256" height="287">
<path d="M0 0 C8.25 0 16.5 0 25 0 C25.33 21.45 25.66 42.9 26 65 C29.96 63.02 33.92 61.04 38 59 C43.68167433 57.16037667 48.75861597 56.72274007 54.65625 56.8046875 C55.70570801 56.80770874 55.70570801 56.80770874 56.77636719 56.81079102 C59.35097965 56.82113195 61.92549752 56.84905291 64.5 56.875 C73.1625 56.936875 73.1625 56.936875 82 57 C81.67 38.19 81.34 19.38 81 0 C89.58 0 98.16 0 107 0 C107 18.81 107 37.62 107 57 C121.40080925 55.41761192 121.40080925 55.41761192 132 48 C132.66 47.01 133.32 46.02 134 45 C138.81919471 45.67487737 142.91883866 47.57965909 147.3125 49.5625 C148.05306641 49.89185547 148.79363281 50.22121094 149.55664062 50.56054688 C151.37311562 51.36917123 153.18683931 52.18397116 155 53 C150.44527821 65.1886921 142.52425095 73.35556376 130.8359375 78.78125 C122.4449829 82.38728007 116.87905293 82.29435336 107 83 C107 103.46 107 123.92 107 145 C98.42 145 89.84 145 81 145 C81.33 124.54 81.66 104.08 82 83 C72.3784375 83.12375 72.3784375 83.12375 62.5625 83.25 C60.55615479 83.26579102 58.54980957 83.28158203 56.48266602 83.29785156 C54.8647178 83.32725874 53.24679461 83.35809115 51.62890625 83.390625 C50.81127808 83.39175293 49.9936499 83.39288086 49.15124512 83.39404297 C42.04090202 83.56780191 35.68776191 85.31223809 30.5625 90.4375 C25.98694943 97.94140294 25.85426545 105.86735557 25.68359375 114.43359375 C25.66281265 115.31153091 25.64203156 116.18946808 25.62062073 117.0940094 C25.55568055 119.87509985 25.49650073 122.65627785 25.4375 125.4375 C25.39426186 127.33269104 25.35064595 129.2278735 25.30664062 131.12304688 C25.19935186 135.74860984 25.09986697 140.37424712 25 145 C16.75 145 8.5 145 0 145 C0 97.15 0 49.3 0 0 Z " fill="#2E2E2E" transform="translate(71,71)"/>
</svg>
